HIERARCHY
ROOT Hips
{
	OFFSET 0.000000 0.000000 0.000000
	CHANNELS 6 Xposition Yposition Zposition Zrotation Yrotation Xrotation 
	JOINT LHipJoint
	{
		OFFSET 0.000000 0.000000 0.000000
		CHANNELS 3 Zrotation Yrotation Xrotation
		JOINT LeftUpLeg
		{
			OFFSET 1.363060 -1.794630 0.839290
			CHANNELS 3 Zrotation Yrotation Xrotation
			JOINT LeftLeg
			{
				OFFSET 2.448110 -6.726130 0.000000
				CHANNELS 3 Zrotation Yrotation Xrotation
				JOINT LeftFoot
				{
					OFFSET 2.562200 -7.039590 0.000000
					CHANNELS 3 Zrotation Yrotation Xrotation
					JOINT LeftToeBase
					{
						OFFSET 0.157640 -0.433110 2.322550
						CHANNELS 3 Zrotation Yrotation Xrotation
						End Site
						{
							OFFSET 0.000000 0.000000 0.000000
						}
					}
				}
			}
		}
	}
	JOINT RHipJoint
	{
		OFFSET 0.000000 0.000000 0.000000
		CHANNELS 3 Zrotation Yrotation Xrotation
		JOINT RightUpLeg
		{
			OFFSET -1.305520 -1.794630 0.839290
			CHANNELS 3 Zrotation Yrotation Xrotation
			JOINT RightLeg
			{
				OFFSET -2.542530 -6.985550 0.000000
				CHANNELS 3 Zrotation Yrotation Xrotation
				JOINT RightFoot
				{
					OFFSET -2.568260 -7.056230 0.000000
					CHANNELS 3 Zrotation Yrotation Xrotation
					JOINT RightToeBase
					{
						OFFSET -0.164730 -0.452590 2.363150
						CHANNELS 3 Zrotation Yrotation Xrotation
						End Site
						{
							OFFSET 0.000000 0.000000 0.000000
						}
					}
				}
			}
		}
	}
}
MOTION
Frames: 16
Frame Time: 0.008333
23.744480 16.253474 2.000122 159.422597 -87.524659 -143.258758 -8.737169 -0.653532 3.066670 -13.252488 -2.081852 -54.035232 -1.503967 1.633416 40.606423 1.540790 6.356306 -8.566824 0.143200 0.000000 -16.931000 11.234038 -5.700204 0.480985 3.638722 -6.670719 4.789463 0.948429 -2.395143 25.518553 0.212277 8.733977 17.437988 3.563000 -0.000000 -89.680100
23.582378 16.212889 2.015027 156.594270 -87.520400 -140.918854 -8.630029 -0.625741 2.763587 -13.828685 -1.573217 -53.644406 -1.448922 1.737328 42.438901 1.505074 6.081991 -9.333038 0.001900 0.000000 -16.501400 11.578421 -5.688664 0.344430 2.769017 -7.319867 3.827445 0.724502 -2.618174 28.828519 0.099083 9.384263 18.878757 4.111600 -0.000000 -88.415800
23.423664 16.168294 2.031214 154.233489 -87.416348 -139.085069 -8.537859 -0.579908 2.447866 -14.435999 -0.950984 -53.195333 -1.413993 1.838093 44.212486 1.473937 5.782216 -10.276021 -0.154300 0.000000 -16.154000 11.899272 -5.640826 0.197670 1.869320 -7.962374 2.787261 0.492169 -2.828878 32.335780 -0.047603 9.600615 20.167871 4.477300 0.000000 -86.305900
23.268341 16.119950 2.048685 152.334994 -87.232618 -137.739014 -8.463633 -0.520528 2.125770 -15.060383 -0.236487 -52.704253 -1.395510 1.935973 45.926638 1.450012 5.476720 -11.368853 -0.318500 0.000000 -15.911000 12.190133 -5.561010 0.042671 0.968023 -8.582021 1.672344 0.255589 -3.031731 36.006084 -0.225941 9.237586 21.226300 4.554300 0.000001 -83.479500
23.116273 16.068488 2.067249 150.786959 -86.995467 -136.757856 -8.402916 -0.450546 1.803903 -15.688848 0.537487 -52.182712 -1.388998 2.029805 47.577781 1.436077 5.188009 -12.577721 -0.484900 0.000000 -15.783600 12.454811 -5.453159 -0.119839 0.087052 -9.172866 0.482628 0.017443 -3.232677 39.808513 -0.433451 8.206593 21.967566 4.264500 -0.000000 -80.042500
22.967163 16.014723 2.086768 149.455533 -86.731595 -135.995988 -8.349475 -0.371565 1.489401 -16.308000 1.331240 -51.637983 -1.389749 2.118254 49.160446 1.434667 4.938402 -13.865947 -0.650500 -0.000000 -15.769700 12.699961 -5.320473 -0.289446 -0.753774 -9.731240 -0.781313 -0.221074 -3.437587 43.710441 -0.667713 6.490372 22.303763 3.580000 -0.000000 -76.114400
22.820844 15.959690 2.107027 148.211271 -86.464691 -135.313332 -8.297072 -0.284682 1.189007 -16.905997 2.102512 -51.074709 -1.393508 2.200316 50.667990 1.447653 4.747166 -15.197407 -0.814900 -0.000000 -15.853900 12.932732 -5.165642 -0.465952 -1.537623 -10.253980 -2.118510 -0.459993 -3.651802 47.677443 -0.925515 4.155730 22.154224 2.542200 0.000000 -71.807700
22.677310 15.904550 2.127711 146.924495 -86.213376 -134.569642 -8.238320 -0.189647 0.909423 -17.476851 2.807824 -50.492345 -1.396919 2.274782 52.089525 1.476452 4.631188 -16.537636 -0.980400 0.000000 -16.009400 13.162131 -4.991535 -0.648398 -2.256606 -10.739903 -3.529921 -0.700582 -3.879840 51.675905 -1.201144 1.355021 21.456753 1.264900 0.000001 -67.169800
22.536231 15.850476 2.148746 145.535314 -85.990643 -133.693836 -8.171527 -0.087455 0.655582 -18.012090 3.412193 -49.891715 -1.397678 2.341910 53.416448 1.521084 4.599045 -17.857771 -1.150200 0.000000 -16.203800 13.390408 -4.801463 -0.835778 -2.898468 -11.183445 -5.014682 -0.945056 -4.124215 55.666970 -1.485752 -1.700773 20.192914 -0.086600 0.000000 -62.319300
22.397403 15.798757 2.169921 143.975156 -85.802804 -132.609982 -8.092892 0.022701 0.431957 -18.512539 3.886161 -49.268750 -1.394744 2.401433 54.635550 1.581158 4.655823 -19.132574 -1.328300 0.000000 -16.402300 13.622404 -4.598568 -1.025338 -3.463522 -11.581850 -6.573819 -1.196480 -4.385251 59.613295 -1.766869 -4.770994 18.388684 -1.330400 -0.000000 -57.318700
22.260918 15.750402 2.191256 142.245620 -85.650701 -131.311224 -8.004650 0.139718 0.240266 -18.974664 4.214888 -48.623889 -1.388169 2.454583 55.738400 1.654899 4.797237 -20.344304 -1.517100 -0.000000 -16.575500 13.855622 -4.385438 -1.214571 -3.945581 -11.928066 -8.207310 -1.457450 -4.660240 63.476539 -2.029811 -7.632042 16.118587 -2.312600 0.000000 -52.273900
22.126207 15.706409 2.212760 140.358991 -85.530119 -129.805738 -7.909140 0.262925 0.080686 -19.399708 4.395374 -47.956109 -1.378995 2.502352 56.715475 1.739917 5.013946 -21.479527 -1.717800 -0.000000 -16.701100 14.087154 -4.163595 -1.400092 -4.344223 -12.216851 -9.914038 -1.728938 -4.943930 67.218582 -2.259206 -10.103172 13.488538 -2.936399 0.000000 -47.262199
21.993574 15.667574 2.234595 138.362998 -85.434495 -128.139217 -7.811607 0.390712 -0.048263 -19.787020 4.438431 -47.265075 -1.368937 2.545749 57.559322 1.833070 5.290746 -22.530625 -1.928900 0.000000 -16.767500 14.310519 -3.934488 -1.577971 -4.657179 -12.441848 -11.689625 -2.009137 -5.229206 70.801339 -2.440743 -12.061155 10.616884 -3.173500 -0.000000 -42.336500
21.862641 15.634560 2.256889 136.321932 -85.356427 -126.376644 -7.718378 0.520604 -0.150204 -20.135727 4.366133 -46.550759 -1.360058 2.585547 58.265155 1.930722 5.608673 -23.494189 -2.147200 -0.000000 -16.771001 14.517823 -3.699304 -1.744768 -4.882668 -12.598285 -13.526684 -2.292928 -5.508421 74.186342 -2.562508 -13.437229 7.617145 -3.056800 0.000000 -37.509000
21.733325 15.607759 2.279851 134.314269 -85.289425 -124.598836 -7.636113 0.649028 -0.230856 -20.444213 4.209008 -45.813955 -1.354558 2.622049 58.830761 2.029115 5.946933 -24.371457 -2.367700 -0.000000 -16.718300 14.700749 -3.459473 -1.897759 -5.019562 -12.682686 -15.414997 -2.572114 -5.774499 77.335148 -2.616336 -14.210222 4.589444 -2.663100 0.000000 -32.764200
21.605463 15.587515 2.303616 132.422925 -85.229611 -122.893160 -7.571279 0.772127 -0.296518 -20.709414 4.002441 -45.054747 -1.354402 2.654861 59.255665 2.124568 6.284927 -25.165868 -2.584600 0.000000 -16.620900 14.851393 -3.217327 -2.033748 -5.065966 -12.691651 -17.341810 -2.836257 -6.021041 80.208676 -2.598988 -14.399033 1.622840 -2.094700 -0.000000 -28.088600
